<?xml version="1.0" encoding="utf-8"?>
<svg width="193px" height="32px" viewBox="0 0 193 32" version="1.1" xmlns="http://www.w3.org/2000/svg" xmlns:xlink="http://www.w3.org/1999/xlink">
<style type="text/css">
	.st0{fill:#FC7B24;}
	.st1{fill:#0A3A2A;}
	.st2{fill:#F0832B;}
	.st3{fill:#FFFFFF;}
</style>
<g>
	<g>
		<path class="st0" d="M136.3,11.6C136.3,11.6,136.2,11.6,136.3,11.6C136.2,11.6,136.3,11.6,136.3,11.6L136.3,11.6z"/>
		<path class="st1" d="M80.5,24.4c-0.1,0.4-0.2,0.7-0.2,1.1l0,0c-0.7-0.4-1.5-0.8-2.3-0.9C78.8,23.9,79.7,24.3,80.5,24.4z"/>
		<path class="st1" d="M77.7,27.3c0.6-0.8,1.7-1.2,2.7-1.2c0,0.5,0,1,0.1,1.5C79.5,27.8,78.5,27.8,77.7,27.3z"/>
		<path class="st2" d="M51.7,20.2c0.1-0.2,0.1-0.5,0.3-0.7c0.2-0.4,0.6-0.6,1.1-0.5c0.6,0.1,1.1,0.3,1.6,0.6c1.1,0.6,2.2,1.3,3.3,2
			c1.3,0.8,2.7,1,4.2,0.6c1.3-0.4,2.4-1.1,3.4-2c1.4-1.2,2.6-2.6,3.6-4.1c1.2-1.7,2.4-3.3,3.9-4.8c1.7-1.7,3.6-3.2,5.7-4.3
			c2-1.1,4-2.1,6.1-3.1c3-1.5,6.1-2.7,9.5-2.9c0.8,0,1.5,0,2.3,0s1.5,0.1,2.3,0.2c0.5,0,1,0.1,1.5,0.1c0.7,0.1,1.3,0.2,2,0.2
			c0.6,0.1,1.2,0.1,1.8,0.2c0.8,0.1,1.5,0.2,2.3,0.3c0.7,0.1,1.4,0.2,2.1,0.3c0.7,0.1,1.3,0.1,1.9-0.2c0.4-0.2,0.8-0.4,1.3-0.6
			c0.2-0.1,0.5-0.2,0.7-0.4c0.9-0.6,1.9-0.6,2.9-0.4c0.7,0.1,1.3,0.2,2,0.3c0.6,0.1,1.3,0.2,1.9,0.2c0.6,0.1,1.2,0.1,1.8,0.1
			c1.2,0,2.3-0.1,3.5-0.1c0.4,0,0.7,0,1.1,0c0.1,0,0.2,0,0.3,0c-0.1-0.3,0-0.5,0.2-0.5c0.6-0.1,1.2-0.1,1.8,0.4
			c-0.1-0.1-0.1-0.1,0,0c0.2,0.2,0.3,0.1,0.5,0c0.3-0.3,0.7-0.4,1.1-0.3c0.6,0.2,1.1,0.4,1.7,0.6c1.9,0.7,3.6,1.6,5.2,2.8
			c0.3,0.2,0.5,0.4,0.5,0.8c0,0.1,0,0.2,0.1,0.2c0.2,0.6,0.6,1.1,1,1.5c0.6,0.5,1,1.2,1.1,1.9c0.1,0.5,0.1,0.9-0.4,1.3
			c-0.5,0.4-0.9,0.8-1.4,1.3c-0.4,0.4-0.9,0.5-1.5,0.6l0.1-0.1c0,0,0,0,0.1-0.1l0,0l0.1-0.1l0,0c0-0.1,0.1-0.2,0-0.4
			s-0.3-0.4-0.6-0.4c-0.2-0.3-0.3-0.6-0.5-0.9c-0.1-0.2-0.3-0.3-0.6-0.2c-0.5,0.1-0.9,0.2-1.4,0.3l-0.1,0.1c0.1,0.3,0.1,0.5,0.4,0.7
			c0.1,0.1,0.2,0.2,0.2,0.3s0.1,0.2,0.1,0.4c-0.1,0.1,0,0.2,0.2,0.2h0.1c0.3,0.1,0.5,0.3,0.8,0.4c0.1,0.1,0.2,0.2,0.1,0.4
			c-0.1,0.1-0.1,0.3-0.1,0.4c0.3-0.2,0.6-0.3,0.9-0.4c0,0,0,0,0,0.1c-0.2,0.2-0.3,0.5-0.5,0.7c-0.1,0.1-0.1,0.3-0.1,0.4
			c0,0.4,0,0.7-0.4,0.9c-0.3,0.2-0.6,0.3-0.9,0.4c-0.2,0.1-0.4,0.1-0.6,0.3c-0.3,0.3-0.6,0.3-1,0.1c-0.5-0.3-0.8-0.7-1-1.3
			c0-0.1,0-0.2,0-0.3c0.1-0.2,0-0.2-0.2-0.3c-0.7-0.1-1.4-0.3-2-0.7h-0.2c-0.2,0.1-0.5,0.3-0.7,0.4c-0.3,0.1-0.6,0.2-0.9,0
			c-0.3-0.2-0.6-0.3-1-0.2c-0.3,0.1-0.6,0-0.9,0.2c-0.5,0.3-1,0.5-1.5,0.8c-0.8,0.4-1.5,0.9-2.2,1.3c-0.3,0.2-0.4,0.5-0.1,0.8
			c0.2,0.2,0.3,0.4,0.5,0.5c0.3,0.2,0.5,0.6,0.6,1c0.3,1.3,0.6,2.6,0.9,3.8c0.2,0.8,0.4,1.7,0.9,2.4c0.3,0.4,0.5,0.7,0.8,1.1
			c0.2,0.2,0.4,0.5,0.5,0.8c0.2,0.7,0.4,1.4,0.5,2.1c0.1,0.5,0.4,0.7,0.8,0.6c0.4-0.1,0.7-0.2,1.1-0.3c0.3-0.1,0.6,0,0.8,0.2
			c0.7,0.6,1.1,1.3,1.3,2.1c0,0.2,0,0.3-0.2,0.4c-0.1,0-0.2,0.1-0.3,0.1c-0.6,0.2-1.3,0.2-2,0.2c-0.4,0-0.9,0-1.3-0.1
			c-0.4,0-0.8-0.1-1.2-0.2c-1-0.2-1.7-0.9-2.1-1.9c-0.4-0.9-0.9-1.4-1.8-1.7c-0.5-0.2-0.9-0.5-1.2-1c-0.4-0.6-0.7-1.2-1-1.8
			c-0.3-0.4-0.5-0.9-0.9-1.3c-1-1-1.8-2.1-2.7-3.2c-0.2-0.3-0.4-0.5-0.6-0.8c-0.1,0.1-0.1,0.2-0.2,0.3c-0.7,1.2-1.3,2.4-2,3.6
			c-0.5,0.9-0.9,1.7-1.4,2.6c-0.4,0.7-0.5,1.4-0.4,2.2c0.1,0.6,0.3,0.9,0.9,1c0.2,0,0.4,0,0.6,0c0.7,0,1.3,0.3,1.5,1
			c0.1,0.3,0.2,0.5,0.2,0.8c0.1,0.3,0,0.5-0.3,0.6c-0.2,0.1-0.5,0.1-0.7,0.1c-0.9,0-1.7-0.1-2.5-0.2c-1.9-0.3-2.8-1.5-3.3-3.2
			c-0.2-0.6-0.2-1.2-0.2-1.8c0-0.9,0-1.7,0-2.6c0-0.6,0.1-1.1,0-1.7c-0.2-1.5-0.7-3-1.1-4.5c0-0.1-0.1-0.1-0.2-0.1
			c-0.4,0-0.8,0.1-1.2,0.1c-0.8,0-1.6,0-2.3-0.1c-0.5,0-1-0.2-1.5-0.2c-0.7-0.1-1.3-0.2-2-0.3c-0.6-0.1-1.2-0.1-1.7-0.2
			c-0.1,0-0.1,0-0.2,0c0,0.3,0,0.6-0.1,0.9c0,0.4-0.1,0.8-0.2,1.2c-0.4,1.8-1.2,3.4-2.2,4.9c-0.1,0.1-0.1,0.3-0.1,0.5
			s0.1,0.5,0.2,0.7c0.6,1.1,1.4,2.1,2.2,3c0.3,0.3,0.7,0.5,1.2,0.5c0.6,0,1.3,0,1.9,0c1.2,0,2.2,0.9,2.3,2.1c0,0.3,0,0.4-0.3,0.5
			c-0.5,0.1-1,0.2-1.5,0.2c-1,0-2,0-3-0.2c-0.6-0.1-1.2-0.3-1.8-0.7c-0.4-0.3-0.8-0.6-1.3-0.8c-1.1-0.6-2.2-1.1-3.3-1.7
			c-0.5-0.3-1-0.5-1.3-0.9c-0.3-0.3-0.4-0.7-0.3-1.1c0.1-0.4,0.2-0.7,0.3-1.1c0.4-1.3,0.4-2.6-0.3-3.8c-0.5-0.9-1.1-1.8-1.7-2.8
			c-0.1-0.1-0.2-0.2-0.3-0.4c-0.1,0.1-0.1,0.2-0.2,0.2c-0.4,0.4-0.8,0.8-1.3,1.1c-0.7,0.5-1.5,1-2.3,1.6c-0.9,0.6-1.8,1.3-2.6,2.1
			c-0.4,0.4-0.7,0.8-0.8,1.3c0,0.1,0,0.2,0,0.2c-0.8-0.1-1.8-0.5-2.5,0.2c0.9,0.1,1.6,0.6,2.3,0.9c0,0.2,0,0.4,0,0.6
			c-0.9-0.1-2,0.4-2.7,1.2c0.8,0.5,1.8,0.4,2.7,0.3c0,0.1,0,0.2,0,0.4c0,0.2,0.1,0.4,0.3,0.4c0.2,0.1,0.3,0.1,0.5,0.1
			c0.5,0,1,0,1.5,0c0.7,0,1.3,0.3,1.7,0.8c0.3,0.4,0.5,0.9,0.6,1.4c0,0.2,0,0.3-0.2,0.3c-0.1,0-0.2,0.1-0.3,0.1
			c-0.6,0.1-1.2,0.2-1.8,0.2c-0.9,0.1-1.7,0.1-2.6,0c-0.5,0-0.9-0.1-1.3-0.5c-0.5-0.5-1-1-1.6-1.5c-0.3-0.3-0.5-0.6-0.6-0.9
			c-0.5-1.2-0.8-2.5-1-3.9c-0.1-0.6-0.2-1.2-0.2-1.9c0-0.7-0.1-1.5-0.1-2.2c0-0.5,0.3-0.8,0.8-0.8c0.2,0,0.4,0,0.5,0
			c0.6,0,1-0.2,1.4-0.6c0.5-0.6,0.8-1.2,1-1.9c0.4-1.2,0.7-2.4,1-3.7s0.6-2.6,1.2-3.8c0,0,0-0.1,0-0.2c-1,0.4-2,0.7-3.1,1.1
			c-0.7,0.3-1.3,0.6-1.9,1.1c-0.5,0.5-1,1-1.4,1.5c-1.1,1.4-2.1,2.9-3,4.5c-1,1.6-2.2,3.1-3.7,4.2c-2.4,1.8-5,2.8-8,2.9
			c-1.1,0.1-2.3-0.1-3.4-0.3c-1.4-0.4-2.8-0.9-3.9-1.9c-0.6-0.6-1.2-1.2-1.4-2c0-0.1-0.1-0.2-0.1-0.4v-0.1
			C51.7,20.3,51.7,20.2,51.7,20.2z"/>
		<path d="M136.4,11.1c0,0.1,0,0.2,0,0.4c-0.2-0.1-0.3-0.1-0.5,0c-0.1,0.1-0.3,0.1-0.4,0.2l0,0l0,0c-0.1,0-0.2,0.1-0.3,0.1
			c0,0,0,0,0-0.1c0.2-0.2,0.4-0.5,0.6-0.7c0-0.1,0.1-0.2,0.1-0.2s0,0,0-0.1C136,10.7,136.3,10.9,136.4,11.1z"/>
	</g>
	<g>
		<path class="st3" d="M123.6,29c-0.3-0.6-0.7-1.1-1.3-1.4c-0.2-0.1-0.4-0.2-0.6-0.2c-0.4-0.1-0.7-0.4-0.9-0.7
			c-0.4-0.6-0.7-1.3-1.1-1.9c-0.3-0.5-0.7-1.1-1-1.6c-0.4-0.6-1-1.1-1.4-1.6c-0.6-0.7-1.2-1.5-1.8-2.3c0.4-0.3,0.8-0.6,1.2-0.9
			c0,0.3,0.1,0.3,0.3,0.2h0.1c0.3,0,0.6-0.2,0.6-0.5c0.1-0.2,0.2-0.4,0.3-0.6c0-0.1,0.1-0.3,0.1-0.4c0-0.2,0.1-0.4,0.3-0.4
			c0.1,0,0.2,0,0.2,0c0.1,0,0.2-0.1,0.2-0.2s-0.1-0.2-0.2-0.2c-0.2-0.1-0.2-0.2,0-0.4c0.2-0.2,0.4-0.3,0.5-0.5
			c0.2-0.2,0.4-0.3,0.6-0.4c0.2-0.1,0.4-0.1,0.6-0.2c0.6-0.3,1.1-0.6,1.7-0.8c0.4-0.2,0.7-0.4,1.1-0.5c0.2-0.1,0.3-0.2,0.3-0.3
			c0-0.7,0.4-1.3,0.8-1.9c0.1-0.2,0.3-0.4,0.4-0.6c0.1-0.2,0.1-0.4,0.1-0.6c0-0.1,0-0.2-0.1-0.2c-0.2-0.1-0.2-0.2-0.2-0.4
			s0-0.4,0-0.6c0-0.1,0-0.1,0-0.1c-0.1,0.1-0.2,0.2-0.4,0.3c-0.1,0.1-0.2,0-0.2-0.1c-0.1-0.2-0.1-0.5,0-0.7c0.1-0.3,0.2-0.6,0.3-0.8
			c-0.1-0.1-0.2-0.2-0.3-0.2c0,0,0,0,0.1,0c0-0.1,0-0.2,0-0.2c-0.1-0.1,0-0.1,0.1-0.2c0.2,0,0.3-0.1,0.4-0.2
			c-0.2-0.2-0.2-0.4-0.1-0.5c0.2-0.2,0.1-0.6,0.3-0.8c0.2-0.2,0.2-0.7,0.6-0.7c0,0,0-0.1,0.1-0.1c0.4-0.4,0.8-0.9,1.3-1.3
			c0.1-0.1,0.1-0.1,0.2-0.2c-0.3-0.1-0.6-0.2-0.9-0.4c0-0.1,0-0.1,0-0.2c-0.2,0.1-0.3,0.1-0.4,0.2c-0.1-0.1-0.1-0.2-0.1-0.2
			c-0.2,0.1-0.3,0-0.3-0.3c0.2,0,0.2-0.2,0.2-0.3c0-0.2,0.1-0.4,0.3-0.5c0.3-0.1,0.5-0.3,0.8-0.3c0.1,0,0.2,0,0.2,0
			c0.1,0.1,0.2,0.2,0.4,0.3c0.2,0.2,0.3,0.4,0.4,0.7c0.4,0,0.8,0.1,1.2,0.1c0.2,0,0.3,0.3,0.2,0.4c-0.1,0.1-0.1,0.1-0.1,0.2
			c0,0,0,0.1-0.1,0.1c-0.2,0.1-0.4,0.2-0.6,0.2c-0.2,0-0.4-0.1-0.7-0.1c0,0.1,0,0.1,0.1,0.2c0.2,0.4,0.1,0.6-0.1,0.8
			c-0.2,0.2-0.5,0.4-0.7,0.6c-0.1,0-0.1,0.1-0.1,0.2s0.1,0.2,0.2,0.4c0.1,0.2,0.1,0.4,0,0.6c-0.2,0.4-0.6,0.6-0.5,1.1
			c0.2-0.2,0.3-0.5,0.6-0.6c0.2-0.2,0.5-0.3,0.7-0.5c0.2,0,0.3,0.3,0.4,0.4c0.1,0.2,0.1,0.5,0,0.7c-0.2,0.2-0.5,0.4-0.7,0.6
			s-0.4,0.4-0.4,0.7c0,0.2,0.1,0.4,0.1,0.5c0.2-0.2,0.3-0.5,0.5-0.7c0.3-0.4,0.7-0.5,1.1-0.4c-0.1,0.1-0.1,0.2-0.2,0.2
			c-0.3,0.2-0.6,0.4-0.7,0.8c-0.1,0.6,0,1.1,0.1,1.6c0.3,0,0.3,0,0.2,0.3c0,0.2,0,0.3,0,0.5c0,0.1,0.2,0.1,0.3,0.1l0.1,0.1
			c-0.1,0.2,0.2,0.3,0.3,0.4c0-0.2,0.1-0.3,0-0.5c0-0.2-0.1-0.3-0.2-0.5c0-0.3,0-0.5-0.1-0.8c-0.1,0-0.2-0.1-0.2-0.2
			c0-0.3,0.1-0.7,0.3-0.9c0.1-0.1,0.2-0.3,0.3-0.5c0-0.1,0.1-0.2,0.2-0.1c0-0.1-0.1-0.1-0.1-0.2c0.3-0.2,0.5-0.3,0.8-0.5h0.1
			c0.2,0.1,0.2,0.3,0.1,0.5c-0.1,0.1-0.2,0.2-0.4,0.3c-0.1,0-0.2-0.1-0.3-0.1l0,0c-0.1,0.4-0.1,0.8-0.2,1.1c-0.1,0.2,0,0.4,0.1,0.5
			s0.3,0.3,0.1,0.5c0.1,0.1,0.1,0.1,0.1,0.2c0.1-0.1,0.3-0.2,0.4-0.3c0.3-0.2,0.6-0.4,0.8-0.7c0-0.1,0.2-0.3,0.3-0.2
			c0.1-0.2,0.3-0.3,0.3-0.5c0.1-0.2,0.3-0.3,0.5-0.4c0.2,0,0.4,0,0.5-0.1c0.4-0.2,0.8-0.1,1.2-0.1c0.1,0,0.2,0,0.3,0
			c0.5-0.3,1.1-0.3,1.6-0.1c0.1,0,0.2,0.1,0.4,0.2c0.1,0,0.2,0.1,0.3,0c0.4-0.2,0.8-0.3,1.3-0.2c0.2,0,0.3,0.1,0.4,0.2
			c0,0.1-0.1,0.2-0.1,0.2c0.1,0.2-0.1,0.2-0.3,0.3c0.1,0.1,0.1,0.2,0.1,0.2c0.1,0,0.2,0,0.3-0.1c0.1,0,0.1-0.1,0.1-0.1
			c0.1,0,0.2-0.1,0.2-0.1s0,0,0-0.1c0.2,0.1,0.3,0.2,0.5,0.2s0.2,0.1,0.3,0.2l0.1,0.1c0.2,0.2,0.2,0.3,0,0.5
			c-0.1,0.1-0.3,0.3-0.4,0.4c-0.2,0.2-0.2,0.2-0.3-0.1c-0.1-0.2-0.3-0.2-0.4,0c0.1,0,0.1,0,0.2,0c0,0.1,0.1,0.2,0.1,0.3
			c0.1,0.1,0.1,0.2,0,0.3c-0.3,0.3-0.6,0.6-0.9,0.8c-0.2,0.2-0.5,0.3-0.8,0.3c-0.1,0-0.2,0-0.2-0.1c-0.1-0.1-0.2-0.3-0.2-0.5
			s-0.1-0.3-0.3-0.3c-0.1,0-0.1-0.1-0.2-0.2c-0.2-0.2-0.3-0.5-0.4-0.8c-0.2-0.3-0.5-0.3-0.8-0.3c-0.3,0.1-0.7,0.2-1,0.2
			c-0.1,0-0.2,0-0.3-0.1s-0.3-0.2-0.4-0.3C132,9,131.7,9,131.3,8.9c-0.1,0-0.2,0-0.3,0S130.9,9,130.9,9c-0.1,0.3-0.2,0.6-0.3,0.9
			c0,0.1,0,0.2,0.1,0.2c0.2,0.2,0.4,0.4,0.6,0.7c0.1,0.2,0.2,0.4,0.4,0.4c0.1,0,0.1,0.1,0.1,0.2c0.1,0.2,0.2,0.4,0.3,0.5
			c0.3,0.3,0.4,0.7,0.6,1c0.2,0.3,0.4,0.6,0.8,0.7c0.5,0.1,1,0.2,1.5-0.1l0,0c0,0.5-0.3,0.8-0.8,1c-0.2,0.1-0.3,0.1-0.5,0.2
			c-0.2,0-0.4,0.1-0.6,0.3c-0.3,0.3-0.6,0.3-0.9,0.1c-0.4-0.2-0.7-0.5-0.9-0.8s-0.4-0.7-0.2-1.1c-0.1,0-0.1-0.1-0.2-0.1
			c-0.7-0.1-1.4-0.3-2-0.7c0,0-0.1,0-0.2,0c-0.2,0.1-0.5,0.3-0.7,0.4c-0.3,0.1-0.6,0.2-0.9,0c-0.3-0.2-0.6-0.2-1-0.2
			c-0.2,0-0.4,0-0.6,0.1c-1.4,0.7-2.7,1.4-4,2.2c-0.3,0.2-0.5,0.4-0.2,0.8c-0.4,0.1-0.7,0.3-1,0.4c-0.2,0.1-0.3,0.1-0.3,0.3
			c0,0.1,0,0.2,0.1,0.3c0,0,0,0.1-0.1,0.1c-0.3,0.3-0.7,0.6-1,0.9c-0.4,0.4-0.8,0.8-1,1.3c-0.3,0.1-0.6,0.2-0.9,0.3
			c-0.2,0.1-0.2,0.3-0.2,0.4c0,0.2,0.2,0.2,0.3,0.2s0.1,0,0.1,0c0.1,0.2,0.1,0.3,0.2,0.4c0.1,0.2,0.4,0.2,0.4,0.5l0.1,0.1
			c0.3,0.1,0.4,0.3,0.6,0.6c0.1,0.1,0.1,0.2,0.1,0.3c0,0.2,0.1,0.3,0.3,0.3c0.4,0.1,0.7,0.1,1.1,0.2c0.2,0,0.4,0,0.6,0
			c-0.1,0.2-0.2,0.4-0.1,0.5c0.1,0.1,0.3,0.2,0.4,0.3c0.1,0.4,0.2,0.7,0.3,1c-0.2,0.2-0.2,0.3,0,0.5c0.3,0.2,0.3,0.5,0.4,0.8
			c-0.1,0.1-0.2,0.2-0.2,0.3c0.1,0.2,0.2,0.5,0.3,0.6c0.1,0.2,0.3,0.3,0.6,0.4c0.2,0.1,0.4,0.1,0.4,0.4l0.1,0.1
			c0.2,0.1,0.4,0.3,0.5,0.6c0,0.1,0.1,0.1,0.1,0.2c0.1,0.2,0.3,0.4,0.3,0.7c0,0.5,0.1,0.9,0.4,1.3C124.1,30.1,123.8,29.6,123.6,29z
			 M129.7,10.5c0.3,0,0.5-0.1,0.5-0.3C130.1,10.3,129.9,10.4,129.7,10.5z"/>
		<path class="st3" d="M106.5,17.6c0.4-0.1,0.5-0.5,0.8-0.7c0.2-0.3,0.5-0.5,0.7-0.8c0.2-0.2,0.3-0.6,0.5-0.8c0.1-0.1,0.1-0.2,0-0.3
			s-0.1-0.3-0.3-0.3h-0.1c-0.3,0.3-0.5,0.1-0.8,0.1c-0.2,0.2-0.4,0.4-0.6,0.6h-0.2c0-0.2-0.3-0.2-0.4-0.3c-0.1-0.1-0.4-0.2-0.5-0.2
			c-0.3,0.1-0.5,0.2-0.8,0.3c-0.1-0.1-0.2-0.2-0.2-0.4c-0.1,0-0.2-0.1-0.3-0.1s-0.2,0.1-0.2,0.2c-0.1,0.2-0.2,0.4-0.4,0.7
			c-0.3-0.1-0.6-0.3-0.8-0.4c-0.1,0-0.2-0.2-0.4-0.1c-0.1,0.1-0.4,0-0.5-0.1c-0.2-0.1-0.2,0-0.3,0.2c-0.1-0.2-0.1-0.3-0.1-0.4l0,0
			c0,0.1,0,0.1,0,0.2c0,0.2-0.1,0.4-0.2,0.4c-0.2,0.1-0.3-0.1-0.4-0.2c0-0.1-0.1-0.2-0.1-0.4c-0.2,0.2-0.3,0.2-0.6-0.1
			c-0.2,0.2-0.3,0.2-0.6,0c-0.2,0.3,0.1,0.6,0.1,0.9c-0.4-0.1-0.7-0.2-1.1-0.2c-0.2,0.3-0.3,0.3-0.6,0.2c-0.2-0.1-0.5-0.1-0.7,0
			s-0.3,0.1-0.4-0.1c-0.1-0.2-0.3-0.4-0.3-0.8c-0.3,0-0.5-0.1-0.8-0.1c-0.1,0-0.1,0-0.2,0.1v0.1l0.1,0.1c0,0.5,0.4,0.9,0.7,1.3
			c0.2,0.4,0.5,0.7,0.8,1.1v-0.1c0.3,0,0.7,0.1,1,0.1c0.8,0.1,1.5,0.2,2.3,0.3c0.7,0.1,1.4,0.2,2,0.3c0.8,0.1,1.7,0.1,2.5,0.1
			c0.4,0,0.7-0.1,1.1-0.1C106.4,17.4,106.4,17.5,106.5,17.6C106.5,17.5,106.5,17.6,106.5,17.6z"/>
		<path class="st3" d="M83.1,11.8c0,0.2-0.1,0.4,0,0.7c0.1,0.2,0.1,0.4,0.1,0.6c0,0.3,0.2,0.4,0.3,0.5s0.2,0.1,0.3,0.2
			c0.2,0.1,0.2,0.2,0.1,0.4c-0.1,0.2-0.2,0.4-0.1,0.6c0,0.1,0.1,0.1,0.2,0.1c0.1,0,0.1,0,0.2,0c0.3,0.1,0.4,0.3,0.2,0.6
			c-0.1,0.1-0.1,0.2,0,0.2c0.1,0.1,0.2,0.1,0.3,0.1s0.2,0,0.2,0c0.1,0.2,0.2,0.3,0.3,0.5c0,0.1,0,0.2,0.1,0.4c0,0.1,0,0.2,0,0.4
			c0.1,0,0.2,0,0.3-0.1c0.1-0.3,0.2-0.4,0.5-0.2h0.1c0.2-0.1,0.3,0,0.4,0.2c0,0.1,0.1,0.1,0.2,0.1c0,0,0.1,0,0.1,0.1
			c0.1,0.3,0.2,0.5,0.2,0.8c0,0.1-0.2,0.2-0.3,0.1c-0.1,0-0.1,0-0.3-0.1c0.1,0.2,0.2,0.4,0.3,0.6c0.3-0.3,0.6-0.6,0.9-0.9
			c0,0.1,0.1,0.1,0.1,0.2c0,0,0,0,0.1,0c-0.1-0.2-0.1-0.3-0.2-0.5c-0.1-0.2-0.2-0.4-0.2-0.6s-0.1-0.3-0.2-0.4
			c-0.3-0.3-0.6-0.6-1-0.8s-0.6-0.5-0.9-0.9c-0.1-0.2-0.1-0.3-0.1-0.5c0-0.1,0-0.2-0.1-0.2c-0.1-0.2-0.2-0.4-0.5-0.4
			c-0.1,0-0.1-0.1-0.2-0.1c-0.1-0.1-0.3-0.3-0.5-0.3s-0.3-0.1-0.3-0.3c-0.1-0.3-0.2-0.6-0.3-0.8C83.4,12,83.3,11.8,83.1,11.8z"/>
		<path class="st3" d="M131.9,3.6c0.1,0,0.2,0,0.2,0s0,0,0,0.1c-0.2,0.2-0.4,0.3-0.6,0.5c-0.2,0.2-0.4,0.4-0.4,0.7
			c0.1,0,0.1,0,0.2,0c0,0.2,0.2,0.1,0.3,0.1s0.3-0.2,0.4-0.2c0.2,0,0.3-0.1,0.5-0.2c0.3-0.2,0.4-0.2,0.7,0h0.1c0.2-0.2,0.4,0,0.6,0
			c0.1,0,0.3,0,0.4,0.1c-0.1,0.2-0.1,0.3-0.2,0.5c-0.1,0-0.2-0.1-0.3-0.1s-0.2,0.1-0.3,0.1c0,0-0.1,0.1,0,0.2
			c0.2,0.3,0.4,0.6,0.7,0.7c0.1,0,0.1,0,0.2,0c-0.1-0.1-0.1-0.2-0.2-0.3c0,0,0,0,0.1,0c0.1,0.1,0.1,0.1,0.2,0.2
			c0.1-0.1,0.2-0.1,0.2-0.2c0.1-0.1,0.2-0.1,0.3-0.2c-0.2-0.1-0.4-0.2-0.6-0.3c0-0.1,0-0.2,0-0.3c0.2-0.1,0.4,0.1,0.6,0.2
			c0.2,0.1,0.4,0.2,0.6,0.3c0-0.1,0-0.1,0-0.2c0.1,0,0.1,0,0.2,0h0.1c0-0.2,0.2-0.5,0-0.7c-0.1-0.2-0.3-0.3-0.6-0.3
			c-0.1,0-0.2-0.1-0.2-0.1c-0.2-0.3-0.5-0.5-0.9-0.6c-0.2,0-0.3-0.1-0.5-0.1l-0.1-0.1c-0.1-0.2-0.2-0.4-0.4-0.3
			c-0.4,0.1-0.8,0.1-1.2,0.2C132,3.2,131.9,3.4,131.9,3.6z"/>
		<path class="st3" d="M133.9,6.7c0.2,0,0.3,0.4,0.6,0.3c0.2-0.1,0.4-0.2,0.6-0.4c0.2-0.1,0.2-0.4,0.1-0.6c-0.1,0-0.2,0.1-0.3,0.1
			c-0.1,0.1-0.2,0.3-0.4,0.1C134.3,6.2,134,6.5,133.9,6.7z"/>
	</g>
	<g>
		<path class="st1" d="M51.6,20.6c0.2,0.6,0.3,1.2,0.8,1.6c0.3,0.3,0.7,0.7,1,1c0.7,0.6,1.6,1,2.5,1.3c0.4,0.1,0.7,0.2,1.1,0.4
			c0.2,0.1,0.2,0,0.2-0.2c-0.1-0.4,0-0.8,0.1-1.2c0.2-0.6,0.1-1.3-0.1-1.9c0-0.1,0-0.2-0.1-0.3c0.7,0.5,1.1,1.1,1,2
			c0,0.3,0,0.7,0.1,1c0,0.3-0.1,0.5-0.3,0.6c0,0-0.1,0.1-0.2,0.2c0.4,0,0.8,0.1,1.2,0.1c0.3,0,0.5-0.3,0.6-0.6
			c0.1-0.2,0.1-0.4,0.1-0.6c0-0.1,0-0.2,0.1-0.3c0.2-0.5,0.1-0.9-0.2-1.3c0-0.1-0.1-0.1-0.2-0.1c-0.6-0.2-1.1-0.5-1.6-0.8
			c-0.4-0.3-0.9-0.5-1.3-0.8c0,0,0,0-0.1,0c0,0.2,0.1,0.5,0.1,0.7c0.1,0.3,0,0.6-0.2,0.8c-0.2,0.2-0.3,0.1-0.4-0.1
			c-0.1-0.3-0.1-0.7-0.2-1c0-0.2-0.1-0.4-0.2-0.7c-0.1-0.2-0.2-0.3-0.4-0.4c-0.6-0.3-1.2-0.7-1.9-0.8c-0.4-0.1-0.9-0.1-1.2,0.2
			c-0.2,0.2-0.3,0.5-0.4,0.7c0,0.1,0.1,0.2-0.1,0.3C51.6,20.4,51.6,20.5,51.6,20.6z"/>
		<path class="st1" d="M133.7,10.8c0,0,0.1,0.1,0.1,0.2c0,0.2,0.1,0.3,0.1,0.5s0.1,0.2,0.2,0.2c0.2,0.1,0.4,0.2,0.6,0.3
			c0.2,0.1,0.3,0.3,0.4,0.4c0,0.1-0.1,0.2-0.1,0.4c0,0,0,0.1,0,0.2c0.3-0.1,0.6-0.3,0.9-0.4c0,0,0,0,0.1,0.1
			c-0.2,0.3-0.4,0.5-0.5,0.8c0,0.1-0.1,0.2-0.1,0.3c0,0.4,0,0.4-0.4,0.5c-0.2,0-0.3,0-0.4,0.1c-0.2,0.1-0.4,0.2-0.7,0.2
			c-0.1,0-0.2-0.1-0.3-0.2c0.1-0.2-0.1-0.2-0.1-0.3c-0.1-0.1-0.2-0.3-0.3-0.4c-0.2-0.1-0.3-0.3-0.5-0.4c-0.2-0.1-0.3-0.3-0.1-0.5
			c-0.3-0.1-0.4-0.3-0.4-0.6c0-0.1,0-0.1,0-0.2c-0.1-0.1-0.2-0.2-0.3-0.4c-0.2-0.2-0.4-0.4-0.6-0.6c-0.3-0.2-0.4-0.5-0.3-0.7
			c0.1-0.2,0.1-0.4,0.1-0.7c0-0.1,0-0.2,0-0.3c0.3-0.1,0.5-0.4,0.8-0.3c0.2,0.1,0.4,0.1,0.6,0.1c0.1,0,0.3,0.1,0.4,0
			c0.4,0,0.9-0.1,1.3-0.1c0.3,0,0.6-0.2,0.7-0.4c0.1-0.1,0.1-0.1,0.3-0.1c0.1,0,0.2,0,0.3-0.1c0.1,0,0.1-0.1,0.1-0.2
			c0-0.3,0.3-0.4,0.5-0.6c0.1-0.1,0.3-0.1,0.5-0.1c0-0.1-0.1-0.2-0.2-0.4c0,0.1,0,0.2,0,0.2c-0.3-0.5-0.2-1.1,0.2-1.2
			c0,0.2-0.1,0.5-0.1,0.8c0.4-0.3,0.6-0.3,0.7-0.1c-0.1,0-0.2,0-0.2,0.1c-0.2,0.1-0.3,0.1-0.2,0.4c0.1,0.2,0.1,0.5,0.2,0.7
			c0.1,0.2,0,0.3,0,0.5c0,0-0.1,0-0.1,0.1c-0.1-0.2-0.1-0.4-0.2-0.6c0-0.1-0.1-0.1-0.2-0.1c-0.1,0-0.2,0.1-0.2,0.1
			c0,0.2,0.1,0.1,0.2,0.1l0,0c-0.5,0.4-0.1,0.9,0,1.3c-0.4,0-0.5-0.4-0.5-0.7c0,0.3-0.1,0.6,0.2,0.9c0.2,0.2,0.4,0.4,0.3,0.7
			c-0.3,0.2-0.3-0.1-0.4-0.2c0,0.1,0,0.2,0.1,0.2c0.1,0.1,0.1,0.3,0.1,0.4c-0.1,0.3,0.1,0.6,0.4,0.8c0.2,0.1,0.6-0.1,0.7-0.3
			c0.1-0.1,0.2-0.2,0.3-0.3c0.2-0.1,0.3-0.3,0.5-0.4c0.1-0.1,0.1-0.3,0.1-0.4c-0.1-0.1-0.2-0.3-0.3-0.3c-0.2-0.1-0.5-0.4-0.4-0.7
			s0.2-0.6,0.5-0.7c0.1,0.1,0.2,0.2,0.3,0.3c0.1,0.2,0.3,0.3,0.6,0.2c0.2-0.1,0.4,0,0.5,0.2c0,0.1,0.1,0.1,0.2,0.2
			c0.2,0.1,0.1,0.2,0,0.4s-0.4,0.2-0.6,0.3c0,0.1,0.1,0.2,0.1,0.3c-0.4,0.4-0.8,0.7-1.2,1c-0.4,0.5-1,0.6-1.6,0.7
			c0.1-0.1,0.2-0.2,0.3-0.4c-0.2,0-0.3,0-0.5,0c0-0.2-0.3-0.3-0.1-0.6v-0.1c-0.1-0.4-0.3-0.7-0.5-1c-0.1-0.2-0.3-0.2-0.5-0.2
			c-0.5,0.1-1,0.2-1.5,0.3C133.3,10.3,133.4,10.6,133.7,10.8z M133.1,11.3c-0.2-0.1-0.3-0.3-0.3-0.5c-0.1-0.2-0.1-0.4-0.2-0.6
			c-0.4,0.1-0.5-0.3-0.8-0.3c0,0.1-0.1,0.2-0.1,0.3l0.1,0.2c0.3,0,0.4,0.2,0.5,0.3c0.2,0.3,0.4,0.6,0.5,0.8c0.1,0.3,0.4,0.4,0.6,0.4
			c0.2,0,0.3-0.1,0.2-0.2c-0.2-0.4-0.3-0.8-0.5-1.2c0-0.1-0.1-0.1-0.2-0.1C132.9,10.6,133,10.9,133.1,11.3z M134.1,13.3
			c0-0.1,0.1-0.3,0.1-0.4c0,0,0-0.1,0-0.2h-0.1c-0.1,0.1-0.2,0.2-0.4,0.2s-0.2,0.1-0.2,0.3s0.1,0.3,0.3,0.3
			C134,13.6,134.1,13.5,134.1,13.3z M133.3,12.3c0,0-0.1,0-0.1,0.1c-0.1,0.1-0.3,0.2-0.3,0.2c0,0.1,0.1,0.3,0.2,0.4
			c0.1,0.1,0.2,0.1,0.3-0.1c0.1-0.1,0.1-0.3,0.1-0.4C133.5,12.4,133.4,12.3,133.3,12.3z M135.8,9.9C135.9,9.9,135.9,9.9,135.8,9.9
			c0-0.2-0.1-0.3-0.1-0.5h-0.1C135.7,9.6,135.8,9.8,135.8,9.9z"/>
		<path class="st1" d="M117,12.7c0-0.2,0-0.3-0.1-0.4c-0.2-0.5-0.5-0.9-0.9-1.3c-0.3-0.3-0.6-0.6-0.8-1c-0.3-0.4-0.6-0.8-0.8-1.2
			c-0.3-0.4-0.5-0.9-0.7-1.3c-0.2-0.3-0.1-0.7-0.1-1.1c0-0.2,0-0.4,0-0.6c0-0.5-0.1-1.1-0.2-1.6c0-0.4,0-0.7-0.1-1.1
			c-0.2-0.8-0.3-1.6-0.1-2.4c-0.1,0-0.2,0-0.2,0.1c-0.5,0.2-1,0.5-1.5,0.7c-0.1,0.1-0.2,0.2-0.1,0.2c0.2,0.2,0.2,0.5,0.3,0.8
			s0.2,0.7,0.3,1c0,0.3,0,0.7,0,1c-0.2,0.7-0.2,1.4-0.2,2c0,0.1,0.1,0.2,0.2,0.4c0,0.1,0.1,0.2,0.1,0.3c0.3,0.5,0.5,1.1,0.8,1.6
			c0.1,0.2,0.4,0.4,0.6,0.7c0.1,0.1,0.2,0.3,0.3,0.4c0.1,0.1,0.3,0.2,0.4,0.4l0,0c0.5,0.4,1.1,0.7,1.5,1.2c0.2,0.2,0.4,0.4,0.6,0.6
			C116.5,12.2,116.7,12.4,117,12.7L117,12.7z"/>
		<path class="st1" d="M107.9,12.8c-0.1-0.2-0.2-0.4-0.2-0.6c-0.3-0.6-0.4-1.2-0.4-1.8c0-0.3,0-0.5-0.1-0.8
			c-0.1-0.2-0.1-0.4-0.2-0.7c0.5,0.5,0.9,0.9,1.4,1.3c0.2,0.2,0.5,0.3,0.7,0.5c0.1,0.1,0.3,0,0.4,0.1c-0.4-0.3-0.6-0.7-0.8-1.1
			c-0.1-0.1-0.2-0.3-0.3-0.4c-0.4-0.3-0.5-0.8-0.8-1.2c-0.1-0.2-0.2-0.5-0.3-0.7c-0.3-1-0.1-2.1,0.3-2.9c0.2-0.4,0.4-0.7,0.6-1
			c0-0.1,0.1-0.2,0.1-0.3c0.1-0.2,0.3-0.4,0.4-0.7c0-0.1,0.1-0.2,0.2-0.2c-0.4-0.1-0.8-0.1-1.2-0.2h-0.1c-0.2,0.3-0.5,0.6-0.7,1
			c-0.2,0.6-0.6,1.2-1,1.7c-0.2,0.4-0.2,0.8-0.1,1.2c0.1,0.8,0.2,1.6,0.4,2.4c0.1,0.7,0.2,1.4,0.3,2.1c0.1,0.4,0.3,0.9,0.5,1.2
			C107.4,12.2,107.6,12.5,107.9,12.8z"/>
		<path class="st1" d="M104,1.6c-0.4-0.1-0.8-0.1-1.2-0.2s-0.6,0.2-0.8,0.4c-0.6,0.8-1.1,1.7-1.5,2.6c-0.2,0.4-0.3,0.8-0.4,1.3
			c-0.1,0.3,0,0.6,0,0.9c0,0.5,0,1,0,1.5c-0.1,0.6,0,1.2,0.1,1.7c0.1,0.3,0.1,0.7,0.2,1c0.2,0.6,0.4,1.2,0.6,1.7c0,0,0,0,0.1,0
			c0-0.1,0-0.3,0-0.4c0-0.4,0-0.8,0.1-1.2c0-0.1,0-0.2,0-0.3c-0.3-0.9-0.2-1.8,0-2.7c0.1-0.7,0.3-1.4,0.4-2.2c0.1-0.7,0.3-1.4,0.7-2
			c0.3-0.4,0.5-0.9,0.8-1.3C103.3,2,103.6,1.7,104,1.6C103.9,1.8,104,1.8,104,1.6C104.1,1.7,104.1,1.7,104,1.6z"/>
		<path class="st1" d="M118.1,1c-0.6-0.1-1.1-0.2-1.7-0.2c-0.1,0.3-0.2,0.6-0.3,0.9c0,0.1-0.1,0.2-0.2,0.3c-0.2,0.5-0.3,1-0.3,1.5
			s0,0.9,0.2,1.4c0.1,0.3,0.2,0.6,0.3,0.9c0.1,0.2,0.1,0.5,0.2,0.8c0.2,0.6,0.3,1.1,0.5,1.6c0.2,0.4,0.4,0.7,0.6,1.1
			c0.3,0.5,0.7,0.9,1.1,1.2c0.2,0.1,0.3,0.2,0.5,0.3c-0.2-0.3-0.3-0.7-0.5-1.1c0.1-0.2,0-0.4-0.2-0.6c-0.6-0.7-0.9-1.6-1-2.5
			c-0.1-0.4-0.2-0.8-0.3-1.1c-0.1-0.5-0.1-0.9-0.1-1.4c0-0.3-0.1-0.6-0.1-0.9c0-0.2,0-0.4,0.2-0.5C117.4,2.2,117.8,1.7,118.1,1z"/>
		<path class="st1" d="M86.8,7.7c0.6,0.4,1.2,0.2,1.7,0c0.6-0.3,1.1-0.6,1.7-0.8C90.7,6.7,91,6.4,91.4,6c0.1-0.1,0.2-0.2,0.3-0.3
			c0.5-0.4,0.4-0.9,0.4-1.4c0-0.1,0-0.2,0-0.3c0.2-0.4,0.2-0.8,0.3-1.2c0.1-0.3,0.2-0.6,0.2-0.9s0.1-0.5,0.1-0.8
			c0,0-0.1-0.2-0.2-0.1c-0.4,0.1-0.7,0.1-1.1,0.2c0,0-0.1,0-0.1,0.1c-0.1,0.3-0.3,0.6-0.4,0.9c-0.1,0.2-0.1,0.4-0.1,0.7
			c0,0.5,0,1-0.1,1.5c0,0.4-0.2,0.6-0.5,0.7c-0.6,0.2-0.9,0.7-1.2,1.2c-0.2,0.3-0.4,0.6-0.8,0.7C88.1,7,88,7.1,88,7.1
			c-0.2,0.1-0.3,0.1-0.5,0.2S87,7.4,86.8,7.5C86.9,7.6,86.9,7.7,86.8,7.7z"/>
		<path class="st1" d="M96.4,15.6c-0.2-0.3-0.3-0.7-0.5-1c-0.1-0.2-0.3-0.3-0.5-0.4c-0.5-0.3-0.9-0.6-1.4-0.8
			c-0.6-0.2-1.2-0.6-1.8-0.9c-0.1-0.1-0.3-0.1-0.5-0.1c-0.1,0-0.2,0-0.3,0c-0.2-0.1-0.3,0-0.3,0.2c0,0.3-0.1,0.5-0.4,0.6
			c-0.6,0.2-0.9,0.6-1.1,1.1c-0.3,0.5-0.6,1.1-0.9,1.7c0.2-0.1,0.3-0.1,0.4-0.2c0.2-0.1,0.4-0.2,0.6-0.2c0.1,0,0.2-0.1,0.3-0.2
			c0.4-0.3,0.8-0.6,1.4-0.7c0.3-0.1,0.6-0.2,0.9-0.2c0.4-0.1,0.8,0,1.1,0.1c0.5,0.2,1.1,0.4,1.6,0.6c0.4,0.1,0.8,0.4,1.1,0.6
			C96.2,15.6,96.3,15.7,96.4,15.6C96.4,15.7,96.4,15.7,96.4,15.6z"/>
		<path class="st1" d="M115.1,19.8c0.1-0.1,0.1-0.2,0.2-0.3c0.1-0.1,0.1-0.2,0.3-0.2c0,0,0.2-0.2,0.2-0.3c-0.1-0.7-0.3-1.4-0.5-2.1
			c-0.2-0.5-0.4-1-0.8-1.4c-0.3-0.3-0.7-0.6-1.2-0.6c-0.7,0-1.4-0.1-2,0.3c-0.4,0.3-0.9,0.7-1.2,1c-0.3,0.3-0.6,0.7-0.9,1
			c-0.1,0.1-0.2,0.2-0.2,0.3c0,0,0,0.1,0.1,0.2c0,0,0.1,0,0.2,0c0.1-0.1,0.2-0.2,0.4-0.3c0.3-0.2,0.6-0.4,0.9-0.6
			c0.4-0.2,0.8-0.5,1.2-0.7c0.2-0.1,0.3-0.1,0.5-0.2h0.1c0.6,0.3,1.1,0.6,1.7,0.9c0.2,0.1,0.3,0.3,0.4,0.5c0.1,0.5,0.3,1,0.4,1.5
			C115,19.1,115.1,19.4,115.1,19.8C115,19.7,115,19.7,115.1,19.8z"/>
		<path class="st1" d="M117,18c0.5-0.9,0.5-1.8,0.2-2.6c-0.2-0.6-0.6-1.2-0.9-1.8c-0.1-0.2-0.3-0.5-0.4-0.7
			c-0.1-0.2-0.3-0.3-0.5-0.3s-0.3,0-0.5,0c-0.4-0.1-0.9-0.2-1.3-0.4c-0.2-0.1-0.4-0.1-0.6-0.1c-0.4,0-0.8,0.2-1.2,0.4
			c0,0-0.1,0.1-0.1,0.2c-0.4,0.2-0.7,0.5-1.1,0.7c-0.4,0.2-0.6,0.4-0.8,0.8c0.2-0.1,0.3-0.2,0.5-0.3c0.3-0.1,0.6-0.2,0.9-0.3
			c0.1,0,0.2,0,0.3,0s0.1,0,0.2,0c0.5-0.1,0.9-0.1,1.4-0.1c0.3,0,0.6,0,0.8,0c0.5,0,0.9,0.1,1.3,0.5c0.2,0.2,0.5,0.4,0.7,0.7
			c0.4,0.4,0.7,0.9,0.9,1.5c0.2,0.5,0.3,1,0.2,1.6C116.9,17.8,116.9,17.9,117,18z"/>
		<path class="st1" d="M85.3,13c0.1,0,0.2-0.1,0.2-0.1c0.4-0.7,1-1.1,1.6-1.4c0.4-0.2,0.8-0.4,1.2-0.5s0.7-0.3,1-0.3
			c0.6-0.2,1.1-0.3,1.7-0.1c0.3,0.1,0.6,0.2,0.9,0.3c0.3,0.1,0.7,0.2,1,0.3c0.2,0.1,0.4,0.3,0.6,0.5c0.3,0.4,0.7,0.6,1,0.9
			c0,0,0.1,0,0.2,0.1c-0.2-0.3-0.3-0.5-0.5-0.7c-0.4-0.4-0.8-0.7-1.1-1.1c-0.5-0.6-0.9-1.1-1.7-1.3c-0.4-0.2-0.8-0.3-1.2-0.4
			c-0.3,0-0.6,0.1-0.9,0.2c-0.7,0.2-1.4,0.6-2.1,1.1c-0.3,0.2-0.6,0.5-0.9,0.7c-0.2,0.1-0.4,0.2-0.4,0.5l0,0
			c-0.4,0.3-0.5,0.8-0.8,1.1C85.2,12.8,85.2,12.9,85.3,13C85.2,13,85.2,13,85.3,13z"/>
		<path class="st1" d="M113.5,22.8c0.2-0.4,0.3-0.7,0.5-1c0.1-0.2,0.2-0.5,0.4-0.7s0.1-0.5,0-0.7c-0.2-0.5-0.5-0.9-1-1.2
			c-0.1-0.1-0.2-0.2-0.3-0.3c-0.2-0.2-0.3-0.2-0.5-0.1c-0.2,0-0.4,0-0.7,0c-0.6-0.1-1.2-0.2-1.7,0.1c-0.2,0.1-0.5,0.2-0.6,0.4
			c-0.2,0.2-0.5,0.4-0.7,0.5c-0.1,0.1-0.2,0.2-0.3,0.3v0.1l0.1,0.1c0.1,0,0.3-0.1,0.4-0.1c0.5-0.1,0.9-0.2,1.4-0.2
			c0.4,0,0.8,0.1,1.1,0.2s0.5,0.3,0.7,0.5c0.4,0.3,0.5,0.7,0.7,1.1C113.1,22.1,113.2,22.4,113.5,22.8
			C113.4,22.8,113.5,22.8,113.5,22.8z"/>
		<path class="st1" d="M96.1,11.4c-0.1-0.3-0.1-0.6-0.2-1c-0.1-0.2-0.2-0.5-0.3-0.7c-0.2-0.3-0.2-0.7-0.1-1c0.1-0.8,0.2-1.6,0.4-2.4
			c0.3-1.1,0.6-2.1,1.1-3.2c0.3-0.7,0.7-1.3,1-1.9c0-0.1,0.1-0.1,0.2-0.2c-0.3,0-0.6-0.1-0.8-0.1c-0.1,0-0.1,0.1-0.2,0.1
			c-0.2,0.3-0.4,0.5-0.6,0.8c-0.1,0.1-0.2,0.2-0.2,0.4c-0.1,0.4-0.2,0.7-0.4,1c-0.2,0.4-0.4,0.9-0.6,1.4C95.3,5,95.1,5.4,95,5.8
			c0,0.2,0,0.4-0.1,0.6c0,0.3,0,0.6-0.1,0.9c-0.1,0.7-0.2,1.3-0.1,2c0,0.3,0.2,0.5,0.3,0.8c0.1,0.2,0.2,0.5,0.3,0.7
			C95.7,10.9,95.9,11.1,96.1,11.4L96.1,11.4z"/>
		<path class="st1" d="M94.8,0.8c-0.3,0-0.7,0-1,0.1h-0.1c-0.2,0-0.4,0.2-0.3,0.4c0.2,0.5,0.1,0.9,0,1.4s-0.2,1-0.3,1.4
			c-0.1,0.8-0.2,1.5-0.4,2.3c-0.1,0.5-0.2,1.1-0.2,1.6c0,0.4,0.2,0.8,0.4,1.1c0.4,0.5,0.9,1.1,1.3,1.6c0,0,0,0,0.1,0.1l0,0
			c-0.1-0.3-0.2-0.5-0.3-0.8c-0.2-0.5-0.5-1-0.6-1.5c-0.1-0.3-0.1-0.6-0.1-1c0-0.5,0.1-0.9,0.1-1.4c0-0.3,0.2-0.6,0.2-0.9
			c0.1-0.5,0.3-1,0.5-1.5c0.2-0.4,0.2-0.9,0.2-1.3C94.6,1.9,94.7,1.4,94.8,0.8z"/>
		<path class="st1" d="M124.2,1.1c-0.5,0-0.9,0-1.4,0c-0.1,0-0.2,0.2-0.2,0.3c-0.1,0.2-0.1,0.3-0.1,0.5c0,0.1,0,0.2,0,0.2
			c0,0.1,0,0.1-0.1,0.2c-0.5,0.5-1.1,1-1.6,1.5c-0.1,0.1-0.2,0.3-0.3,0.5c0,0.4-0.1,0.9,0,1.3c0,0.3,0.3,0.6,0.4,0.9
			c0.3,0.5,0.7,0.9,1.1,1.2c0.1,0.1,0.3,0.1,0.4,0.2c0.1,0,0.2-0.1,0.1-0.2c0-0.1-0.1-0.2-0.2-0.3c-0.1-0.1-0.2-0.2-0.2-0.5
			c0-0.1-0.1-0.2-0.2-0.4c-0.3-0.6-0.4-1.2-0.2-1.9c0-0.1,0-0.2,0.1-0.2c0.5-0.4,0.7-1,1.1-1.5c0.3-0.5,0.6-0.9,0.9-1.4
			C124.1,1.5,124.1,1.3,124.2,1.1z"/>
		<path class="st1" d="M101.5,1.3c-0.3,0-0.6-0.1-0.9-0.1c-0.1,0-0.2,0-0.2,0.1c-0.2,0.3-0.3,0.6-0.5,0.9c-0.2,0.4-0.5,0.7-0.7,1.1
			c-0.3,0.4-0.4,0.9-0.5,1.3c-0.1,0.4-0.2,0.7-0.3,1.1c0,0.3-0.1,0.5,0,0.8c0.1,0.7,0.1,1.5,0.2,2.3c0,0.6,0.1,1.3,0.3,1.8
			c0.1,0.3,0.3,0.6,0.5,0.9c0.1,0.1,0.1,0.2,0.2,0.3c0-0.1-0.1-0.2-0.1-0.2c-0.1-0.4-0.2-0.7-0.2-1c0-0.1,0-0.3,0-0.4
			c0-0.7-0.1-1.5-0.1-2.2c0-0.3,0-0.6,0.1-0.9c0.1-0.7,0.3-1.4,0.2-2.1c0-0.3,0.1-0.6,0.3-0.9c0.5-0.9,1.1-1.6,1.7-2.4
			C101.4,1.6,101.4,1.4,101.5,1.3z"/>
		<path class="st1" d="M90.6,17.4c0.2,0.4,0.5,0.2,0.8,0.2c0.4,0,0.9-0.1,1.3-0.1c0.4,0,0.8-0.1,1.2-0.1s0.8,0.2,1.2,0.3
			c0.6,0.2,1,0.7,1.4,1.2c0.1,0.1,0.3,0.2,0.4,0.4c0,0,0,0,0.1,0c0.1-0.5,0.2-0.9,0.2-1.4c0-0.3-0.2-0.5-0.5-0.6s-0.7-0.2-1-0.4
			c-0.4-0.2-0.8-0.4-1.2-0.6c-0.1-0.1-0.3-0.1-0.4-0.1c-0.4,0-0.9-0.1-1.3-0.1c-0.6,0.1-1.2,0.4-1.6,0.9c-0.1,0.1-0.2,0.2-0.4,0.3
			C90.8,17.3,90.7,17.3,90.6,17.4z"/>
		<path class="st1" d="M121.3,1.2c-0.4,0-0.7,0-1,0c-0.4,0-0.7,0-1-0.1c-0.2,0-0.3,0-0.4,0.2c-0.4,0.9-0.5,1.9-0.3,2.9
			c0.1,0.4,0.1,0.8,0.1,1.2c0.1,0.5,0.3,1,0.5,1.4c0.4,0.7,0.9,1.4,1.4,2.1c0.1-0.2,0.1-0.3-0.2-0.6c-0.2-0.3-0.2-0.6-0.3-0.9
			c-0.2-0.6-0.4-1.3-0.5-1.9c-0.1-0.5-0.2-1.1-0.2-1.7c0-0.1,0.1-0.3,0.2-0.4c0.2-0.4,0.5-0.9,0.7-1.3c0.1-0.1,0.2-0.2,0.2-0.2
			c0.2-0.2,0.3-0.3,0.5-0.4C121.2,1.3,121.2,1.3,121.3,1.2z"/>
		<path class="st1" d="M116.5,9.8c-0.2-0.4-0.4-0.8-0.6-1.2c-0.2-0.3-0.3-0.7-0.3-1.1c0-0.2,0-0.3,0-0.5c0.1-0.4-0.2-0.8-0.4-1.1
			c-0.1-0.2-0.2-0.4-0.3-0.5s-0.1-0.3-0.1-0.4c-0.3-0.5-0.2-1-0.2-1.6s0.3-1.2,0.5-1.7c0.1-0.2,0.2-0.4,0.3-0.6
			c0.1-0.3,0.1-0.4-0.2-0.4c-0.2,0-0.5,0-0.7-0.1c-0.2,0-0.3,0.1-0.3,0.2c-0.1,0.3-0.2,0.7-0.2,1c0,0.7-0.1,1.4-0.1,2.1
			c0,0.5,0.1,1,0.3,1.5c0.3,0.4,0.4,0.9,0.4,1.4c0.1,0.4,0.2,0.8,0.4,1.2c0.3,0.5,0.6,1,0.9,1.4C116.1,9.5,116.3,9.7,116.5,9.8
			L116.5,9.8z"/>
		<path class="st1" d="M111.7,9.2c0-0.1-0.1-0.1-0.1-0.2c-0.2-0.4-0.5-0.7-0.7-1.1c-0.2-0.3-0.4-0.7-0.5-1.1s-0.2-0.8-0.2-1.2
			c-0.1-0.4-0.1-0.8-0.1-1.1c0-0.3,0.1-0.6,0.2-0.8c0.1-0.4,0.2-0.8,0.2-1.3c0-0.1,0-0.2,0-0.3c-0.4,0.1-0.7,0.2-1,0.3
			c-0.1,0.5-0.2,1-0.2,1.5c0,0.3-0.2,0.6-0.2,0.9c-0.1,0.7,0,1.3,0.3,1.9c0.2,0.4,0.5,0.7,0.7,1.1v0.1
			C110.3,8.6,111.1,8.7,111.7,9.2C111.6,9.2,111.7,9.2,111.7,9.2z"/>
		<path class="st1" d="M129.4,6.4c-0.2,0-0.4,0-0.6,0c-0.2-0.3-0.8-0.5-1.2-0.2c-0.1,0.1-0.2,0.2-0.3,0.2s-0.2,0-0.3,0
			c-0.4,0.1-0.9,0.2-1.3,0.2c-0.3,0-0.4,0.2-0.5,0.4c-0.4,0.7-0.5,1-0.6,1.8c0.1-0.1,0.2-0.3,0.2-0.4l0,0c0.3,0.1,0.4-0.2,0.5-0.4
			c0.2-0.2,0.3-0.5,0.5-0.8c0.1-0.1,0.2-0.3,0.4-0.2c0,0,0.1,0,0.2,0c0.2,0,0.4-0.1,0.5-0.1c0.2,0,0.3-0.2,0.4-0.3
			c0.1-0.2,0.3-0.3,0.5-0.3s0.5,0,0.7,0.1c-0.1,0.1-0.3,0.1-0.3,0.2c-0.1,0.1,0,0.2,0,0.4c-0.7,0-1.1,0.4-1.6,0.7S126,8.5,126,9
			s0.2,1,0.5,1.4c0.1,0.3,0.2,0.6,0.3,0.8c0.1,0.3,0.2,0.5,0.4,0.7c0.3,0.2,0.5,0.3,0.8,0.5c0.1-0.2,0.1-0.3,0-0.5
			c0,0-0.1,0-0.1-0.1c-0.2-0.2-0.5-0.3-0.5-0.6c0-0.2-0.2-0.3-0.2-0.5c-0.2-0.5-0.4-0.9-0.6-1.4c-0.1-0.4,0-0.7,0.2-1
			c0.4-0.4,0.7-0.6,1.3-0.7c0.3,0,0.5-0.1,0.8-0.1c0-0.1,0-0.3-0.2-0.4s-0.2-0.5,0-0.6C129.1,6.5,129.3,6.5,129.4,6.4L129.4,6.4z"/>
		<path class="st1" d="M106.1,1.9c-0.3,0-0.6-0.1-1-0.1c-0.1,0-0.2,0.2-0.3,0.3c-0.6,0.8-1.3,1.5-1.6,2.5c-0.2,0.5-0.3,0.9-0.3,1.4
			c0,0.2-0.1,0.5-0.1,0.7c-0.1,0.5-0.1,1,0.1,1.5c0.1,0.4,0.2,0.8,0.3,1.2c0.1,0.3,0.2,0.7,0.3,1c0,0,0,0,0.1,0
			c0-0.7-0.1-1.4-0.1-2.1c0-0.5,0-1.1,0.1-1.6c0.1-0.8,0.5-1.6,0.8-2.3c0.3-0.6,0.7-1.1,1-1.7C105.5,2.3,105.7,2.1,106.1,1.9z"/>
		<path class="st1" d="M124.3,6.5c0.2,0.1,0.3,0,0.4-0.1c0.2-0.2,0.3-0.4,0.5-0.6c0.1-0.1,0.1-0.1,0.3,0h0.1c0.1,0,0.2-0.1,0.2-0.1
			c0.2-0.2,0.5-0.2,0.7-0.2c0.1,0,0.1,0,0.2,0c0.2-0.1,0.5,0,0.7,0s0.4,0,0.5-0.2c0.4-0.3,0.7-0.2,1,0c0.1,0,0.1,0.1,0.1,0.2
			c0.2,0.2,0.2,0.5,0.6,0.5c0.1,0,0.3,0.1,0.1,0.3c-0.1,0.1,0,0.3,0.2,0.3s0.3-0.1,0.4-0.1c0.4,0,0.8,0,1.2,0c0.2,0,0.3,0.1,0.5,0.2
			c0-0.4-0.2-0.6-0.6-0.7c-0.2,0-0.5,0-0.7,0c-0.1,0-0.3,0-0.4-0.1c-0.2-0.2-0.5-0.5-0.6-0.7s-0.4-0.4-0.6-0.5c-0.1-0.1-0.3,0-0.4,0
			c-0.1,0-0.2,0-0.3,0c-0.3-0.2-0.6-0.2-0.9-0.2c-0.1,0-0.2,0.1-0.3,0.1c-0.1,0.1-0.2,0.1-0.3,0.1s-0.2,0-0.3,0
			c-0.5-0.1-0.8,0-1.2,0.3c-0.3,0.2-0.6,0.5-0.8,0.9c-0.1,0.2-0.3,0.3-0.5,0.5C124.4,6.3,124.4,6.4,124.3,6.5z"/>
		<path class="st1" d="M74.9,9.5c-0.7,0.7-1.4,1.3-2.1,1.9c0.2,0.1,0.4,0.2,0.5,0.3c0.4,0.1,0.6,0.4,0.8,0.7
			c0.3,0.4,0.5,0.8,0.8,1.2c0.2-0.3,0.5-0.6,0.7-0.8c0,0,0.1-0.1,0.1-0.2c0-0.6,0-1.2-0.1-1.9c-0.1-0.4-0.3-0.7-0.5-1
			C75,9.7,75,9.6,74.9,9.5z"/>
		<path class="st1" d="M129.1,2.6c-0.1,0.2-0.2,0.3-0.4,0.5c-0.1,0.1-0.3,0.3-0.4,0.3c-0.3,0.1-0.6,0.2-0.9,0.3
			c-0.2,0-0.3,0-0.4-0.1c-0.1,0-0.1-0.1-0.2-0.1c-0.1-0.1-0.1-0.1-0.2,0c-0.1,0.1-0.3,0.2-0.5,0.1c-0.3-0.1-0.5-0.4-0.5-0.7
			s0-0.5,0.2-0.7l0.1-0.1c-0.1-0.3-0.1-0.6-0.2-0.9l0,0h0.1c0-0.1-0.1-0.2,0-0.2c0-0.1,0.1-0.2,0.2-0.3c0.1,0,0.2,0,0.2,0
			c0.2,0.3,0.4,0.6,0.7,0.9c0.3,0.4,0.7,0.8,1.3,0.8c0-0.1,0-0.1,0-0.2c-0.2-0.2-0.3-0.4-0.5-0.6c-0.1-0.1-0.2-0.2-0.2-0.5
			c0.1,0.1,0.2,0.1,0.3,0.2c0.1,0.2,0.3,0.2,0.5,0.1c0.1-0.1,0.3,0,0.4,0.2c0,0.1,0,0.2,0.1,0.2l0.1,0.1l0.1-0.1
			c0-0.1-0.1-0.3-0.2-0.4C129.3,1.3,129.4,2.1,129.1,2.6z M126.6,2.5c0.2,0.1,0.4,0.1,0.6,0.2h0.1c0.1-0.1,0-0.4-0.1-0.4
			c-0.3-0.2-0.6-0.3-0.8-0.5c0,0.3-0.1,0.6-0.1,0.9c0,0.1,0,0.3,0.1,0.3c0.2,0.1,0.4,0.2,0.5,0C126.7,2.8,126.6,2.7,126.6,2.5z"/>
		<path class="st1" d="M85.5,5.1c0.1-0.3,0.2-0.6,0.4-1c0.1,0,0.1,0.1,0.2,0.1c0.1-0.2,0.1-0.3,0.2-0.5c0,0.1,0,0.2,0,0.4
			c0,0.3,0.1,0.6,0,0.9S86,5.6,85.9,5.9c-0.1,0.2-0.2,0.3-0.2,0.5s-0.2,0.4-0.2,0.5s0,0.3,0,0.4C86,7,86.4,6.7,86.7,6.2
			c0.3-0.7,0.6-1.4,0.9-2.1c0.2-0.5,0.2-1,0.3-1.5c0-0.1,0-0.2-0.1-0.3c-0.1,0-0.1,0-0.2,0.1C87,2.7,86.3,3,85.7,3.2
			c-0.1,0.1-0.3,0.1-0.4,0.2c-0.1,0-0.2,0.1-0.1,0.2c0.1,0.3,0.1,0.6,0.2,1C85.3,4.9,85.3,5,85.5,5.1C85.4,5.1,85.5,5.1,85.5,5.1z"
			/>
		<path class="st1" d="M90.8,19.5c0.2,0.2,0.4,0.3,0.6,0.4c0.1,0,0.2,0,0.3,0c0.5,0.1,1,0.2,1.5,0.3c0.3,0.1,0.7,0.3,1,0.3
			c0.6,0,0.9,0.5,1.3,0.8c0.2,0.1,0.3,0.4,0.6,0.4c0.1-0.3,0.3-0.6,0.4-0.9c0-0.1,0-0.2-0.1-0.3c-0.2-0.2-0.5-0.4-0.8-0.5
			c-0.4-0.2-0.7-0.4-1.1-0.6c-0.6-0.3-1.2-0.2-1.8-0.1s-1.2,0.2-1.7,0.3C90.9,19.4,90.9,19.5,90.8,19.5z"/>
		<path class="st1" d="M79.7,15.6c0.2,0.1,0.4,0.2,0.5,0.3c0.2,0.1,0.4,0.1,0.6,0.2c0.3,0.1,0.6,0.2,0.8,0.3
			c0.6,0.6,1.3,1.2,1.8,1.9c-0.1-0.1-0.2-0.1-0.3-0.2c-0.3-0.1-0.6-0.3-1-0.4s-0.8,0-1.1,0c-0.2,0-0.4-0.1-0.6-0.1
			c-0.2-0.1-0.4-0.1-0.6-0.2c-0.2-0.1-0.4-0.1-0.6-0.2C79.4,16.6,79.6,16.1,79.7,15.6z"/>
		<path class="st1" d="M111.9,25.8c0.2-0.3,0.3-0.6,0.4-0.9c0.3-0.4,0.2-0.7,0.1-1.1c-0.1-0.4-0.3-0.8-0.4-1.1
			c-0.1-0.5-0.7-0.8-1.1-0.8c-0.5,0-1,0-1.5,0c0,0,0,0-0.1,0s-0.3,0-0.4,0.2c0,0.2,0.2,0.2,0.3,0.2c0.5,0.2,0.9,0.5,1.4,0.8
			c0.3,0.3,0.6,0.6,0.7,1C111.4,24.8,111.6,25.3,111.9,25.8z"/>
		<path class="st1" d="M91.1,24.2c0.5-0.2,1-0.5,1.4-0.8c0.5-0.4,1.3-0.6,1.9-0.2c0.1,0.1,0.3,0.2,0.4,0.3c0.1,0.1,0.2,0,0.2-0.1
			c0.2-0.4,0.4-0.7,0.6-1v-0.2c-0.3-0.3-0.6-0.5-1-0.4c-0.3,0-0.7,0-1,0c-0.2,0-0.4,0-0.6,0.1c-0.8,0.4-1.4,1.1-1.9,1.9
			C91,23.9,91,24,90.9,24.1C91.1,24,91,24.1,91.1,24.2C91,24.2,91.1,24.2,91.1,24.2z"/>
		<path class="st1" d="M99.7,1.1c-0.4-0.2-0.7-0.1-1,0.2c-0.3,0.5-0.7,1-0.9,1.5c-0.2,0.4-0.4,0.8-0.5,1.2c-0.1,0.2-0.1,0.5-0.1,0.8
			c0,0.4,0,0.8,0.1,1.3c0,0.5,0.2,0.9,0.5,1.2c0,0,0.1,0.1,0.2,0.1c0-0.1,0.1-0.1,0.1-0.2c-0.1-0.4,0-0.8,0-1.2s0.1-0.8,0.2-1.2
			c0.1-0.5,0.2-0.9,0.3-1.4c0.2-0.7,0.5-1.2,0.9-1.8C99.4,1.6,99.5,1.4,99.7,1.1z"/>
		<path class="st1" d="M88.8,2.1c-0.1,0-0.3,0-0.4,0.1c-0.1,0,0,0.2,0,0.3c0,0.4,0.1,0.8,0.1,1.2c0,0.3,0,0.6-0.1,0.9
			c0,0.4,0,0.7,0.1,1.1c0.2-0.1,0.3-0.2,0.4-0.3c0.2-0.2,0.4-0.4,0.5-0.6c0.2-0.4,0.4-0.7,0.5-1.1C90,3.1,90.1,2.6,90.2,2
			c0-0.2,0-0.3,0.1-0.5C89.8,1.8,89.2,1.9,88.8,2.1z"/>
		<path class="st1" d="M70,14.9c-0.3,0.4-0.5,0.7-0.8,1.1c0.8,0.4,1.5,0.9,2.3,1.3c0.1,0.1,0.3,0.1,0.4,0.2c0.1,0,0.2,0,0.2-0.1
			c0.2-0.2,0.1-0.5,0-0.7c-0.2-0.6-0.4-1.2-0.6-1.7c-0.2-0.4-0.4-0.8-0.7-1.2c-0.1,0.2-0.2,0.3-0.3,0.4v0.1c0.1,0.2,0.1,0.5,0.2,0.7
			c0.1,0.3,0.2,0.5,0.3,0.8c0,0,0,0.1,0.1,0.2v0.1H71c-0.1-0.1-0.2-0.2-0.3-0.4c-0.1-0.1-0.1-0.1-0.2-0.1C70.1,15.5,70,15.3,70,14.9
			z"/>
		<path class="st1" d="M134.5,4.3c0.1,0.1,0.2,0.1,0.2,0.2c0.2,0.2,0.4,0.4,0.6,0.6c0,0,0.2,0.1,0.2,0c0,0,0.1-0.1,0.1-0.2
			c0-0.2-0.1-0.4-0.1-0.6c0.1,0,0.1,0.1,0.1,0.1c0.1,0.2,0.1,0.3,0.2,0.5c0.1,0.2,0.1,0.4,0,0.5s-0.3,0.2-0.4,0.1c0,0-0.1,0-0.2,0
			c0.2,0.3,0.7,0.5,0.5,1c0-0.1,0-0.2-0.1-0.2c-0.1-0.1-0.2-0.2-0.3-0.2s-0.3,0-0.3,0.2c0,0.1-0.2,0.1-0.3,0.2c-0.1,0-0.2,0-0.3,0
			c-0.3,0.1-0.4,0-0.6-0.2l-0.1-0.1l0,0c0.2,0.3,0.3,0.5,0.5,0.8c0,0,0,0-0.1,0c-0.4-0.6-0.9-1.3-1.3-1.9h-0.1c-0.2,0-0.3,0-0.5,0.1
			c-0.3,0.1-0.8,0-0.9-0.3c-0.1-0.2-0.3-0.5-0.1-0.8c0.1,0.1,0.2,0.2,0.3,0.4c0.1,0.3,0.3,0.4,0.6,0.3c0.3,0,0.6,0.1,0.8-0.3
			c0.2-0.3,0.6-0.3,0.9-0.1c0,0,0.1,0,0.1,0.1l0,0c0-0.1-0.1-0.1-0.1-0.2c0,0,0.1-0.1,0.1-0.2c0.2,0.1,0.4,0.2,0.6,0.4
			C134.5,4.4,134.5,4.4,134.5,4.3z M134.2,5.2c-0.2-0.1-0.4-0.2-0.7-0.1c-0.1,0.1-0.2,0.1-0.1,0.2c0.1,0.2,0.2,0.4,0.3,0.6
			c0.1,0.1,0.2,0.2,0.4,0.2c0.1,0,0.3,0,0.4,0C134.2,5.9,134.2,5.6,134.2,5.2z M134.7,5.3L134.7,5.3c-0.1-0.1-0.3-0.1-0.4-0.1
			c0,0.2,0.1,0.4,0.1,0.6C134.7,5.8,134.4,5.4,134.7,5.3z"/>
		<path class="st1" d="M64.5,21c0.3,0.3,0.6,0.5,1,0.6c0.2,0,0.3,0.2,0.5,0.1h0.1c0.3-0.1,0.5,0,0.7,0.2c0.2,0.3,0.5,0.6,0.5,1
			c0.3-0.1,0.4-0.3,0.3-0.6c-0.2-0.6-0.4-1.2-0.7-1.9c-0.2-0.4-0.5-0.6-0.8-0.8C65.5,20.1,65,20.5,64.5,21z"/>
		<path class="st1" d="M105.6,11.3c-0.2-0.6-0.3-1.2-0.5-1.8c-0.1-0.2-0.1-0.4,0-0.6c0-0.1,0-0.2,0-0.3c0-0.7,0-1.3,0-2
			c0-0.3,0-0.5,0-0.8c0.1-0.4,0.2-0.7,0.3-1.1c0.1-0.7,0.5-1.2,0.6-1.9c0-0.1,0-0.1,0-0.2l-0.1,0.1c-0.4,0.7-0.9,1.5-1.2,2.2
			c-0.3,0.6-0.5,1.3-0.5,2c0,0.4,0,0.7,0.1,1.1c0.1,0.3,0.2,0.7,0.3,1.1c0.1,0.5,0.3,0.9,0.5,1.4C105.2,10.9,105.4,11.1,105.6,11.3
			C105.5,11.3,105.5,11.3,105.6,11.3z"/>
		<path class="st1" d="M67.7,18c-0.1,0.2-0.2,0.3-0.4,0.4c0.3,0.2,0.4,0.5,0.6,0.8c0.1,0.2,0.2,0.4,0.3,0.7c0.1,0.2,0.1,0.3,0.1,0.5
			c0,0.6,0,1.2,0.1,1.9c0.1-0.1,0.3-0.2,0.5-0.4c0.3-0.3,0.6-0.5,0.9-0.8c0,0,0.1-0.1,0.1-0.2c-0.1-0.3-0.3-0.7-0.4-1
			c-0.2-0.5-0.6-0.9-1-1.2C68.1,18.3,67.9,18.2,67.7,18z"/>
		<path class="st1" d="M77.6,22.2c0.3,0.1,0.6,0.1,0.9,0.2c0.8,0.2,1.7,0.5,2.4,0.9c0.4-0.4,0.9-0.8,1.3-1.2
			c-0.2-0.3-0.5-0.3-0.8-0.4c-0.5-0.1-0.9-0.1-1.4-0.1c-0.1,0-0.2,0-0.3,0.1c-0.4,0.2-0.8,0.2-1.3,0.2c-0.2,0-0.4,0-0.6,0
			C77.7,21.9,77.7,22,77.6,22.2C77.6,22.1,77.6,22.1,77.6,22.2z"/>
		<path class="st1" d="M63.4,23.5c0.3-0.2,0.3-0.3,0.2-0.5c-0.1-0.3-0.2-0.6-0.3-0.9c0,0,0.1,0,0.1-0.1c0.1,0.2,0.3,0.3,0.4,0.5
			c0.2,0.4,0.4,0.8,0.6,1.2c0.1,0.2,0,0.4,0,0.6c0.3-0.1,0.6-0.3,0.9-0.4v-0.1c0-0.6-0.2-1.1-0.6-1.5c-0.3-0.3-0.6-0.6-0.9-0.8h-0.2
			c-0.5,0.3-1,0.5-1.5,0.7c0.2,0.2,0.3,0.4,0.5,0.5c0.3,0.1,0.4,0.3,0.5,0.6C63.2,23.3,63.3,23.4,63.4,23.5z"/>
		<path class="st1" d="M78.8,10.6c0.2,0,0.4-0.2,0.5-0.4s0.1-0.4,0.2-0.5c0.2-0.4,0.3-0.8,0.2-1.2c0-0.6,0-1.2-0.1-1.8V6.6
			c0,0,0,0-0.1-0.1c-0.4,0.2-0.8,0.4-1.1,0.6c-0.1,0-0.1,0.2-0.1,0.4c0,0.3,0.1,0.6,0.2,0.9c0.1,0.3,0.1,0.6,0.1,1
			c0,0.2,0.1,0.4,0.1,0.7C78.8,10.1,78.8,10.4,78.8,10.6z"/>
		<path class="st1" d="M68.8,16.5c-0.1,0.1-0.2,0.2-0.2,0.3c-0.2,0.3-0.5,0.6-0.7,0.9c0.1,0,0.1,0,0.2,0c0.3,0,0.6,0.2,0.8,0.4
			c0.4,0.3,0.8,0.5,1.2,0.7c0.2,0.1,0.5-0.1,0.7-0.1c0,0,0,0,0-0.1c0-0.5-0.2-0.9-0.5-1.3c-0.4-0.3-0.7-0.6-1.2-0.7
			C69,16.6,68.9,16.6,68.8,16.5z"/>
		<path class="st1" d="M124.2,7.8c-0.3,0.3-0.5,1.6-0.3,1.9c0.1,0,0.2-0.1,0.3-0.2c0,0.1,0.1,0.2,0.1,0.2c0,0.3,0.2,0.6,0.4,0.7
			c0.2,0.1,0.3,0.3,0.4,0.6c0.1,0.2,0.2,0.4,0.3,0.6c0,0,0.1,0.2,0.2,0.1c0,0,0.1,0,0.1,0.1c0.2,0.2,0.5,0.4,0.7,0.6
			c0.1-0.1,0.2-0.3,0.2-0.4c0.3,0.1,0.6,0.2,0.9,0.3l0,0c-0.2-0.1-0.3-0.3-0.5-0.4c-0.2-0.1-0.4-0.2-0.6-0.4
			c-0.3-0.1-0.3-0.4-0.4-0.6c-0.1-0.2-0.1-0.4-0.1-0.5c0-0.2-0.2-0.3-0.3-0.4c-0.2-0.1-0.3,0-0.3,0.2c-0.1-0.1,0-0.3-0.2-0.3
			c-0.1,0-0.1,0.2-0.1,0.3c-0.2-0.1-0.3-0.3-0.3-0.5c0-0.1,0-0.3,0-0.4c0-0.2,0-0.3-0.2-0.4c-0.1,0-0.1-0.2-0.1-0.3
			c0-0.2,0.1-0.3,0.1-0.5C124.2,8,124.2,7.9,124.2,7.8z"/>
		<path class="st1" d="M122.9,17.7c0.1,0.4-0.1,0.5-0.4,0.7c-0.2,0.2-0.4,0.4-0.6,0.7c-0.3,0.3-0.6,0.4-0.9,0.5
			c-0.4,0.2-0.7,0.4-1,0.7c-0.1,0.1-0.1,0.2-0.1,0.3c0.1,0,0.2,0.1,0.3,0c0.2-0.1,0.4-0.2,0.7-0.3c0.2,0,0.4,0,0.6,0
			c0.6,0.1,1-0.2,1.4-0.5l0,0c0.5-0.2,0.5-0.5,0.3-0.9C123.1,18.4,123.1,18.1,122.9,17.7L122.9,17.7z"/>
		<path class="st1" d="M84.4,12.1c0.2-0.1,0.2-0.2,0.3-0.4c0-0.2,0.1-0.4,0.2-0.5c0.3-0.4,0.7-0.8,1-1.2c0.2-0.2,0.4-0.4,0.6-0.5
			c0.1-0.1,0.2-0.1,0.3-0.1c0.4-0.1,0.7-0.2,1.1-0.4C88,9,88,8.9,88,8.8c0,0-0.1-0.1-0.2-0.1c-0.4,0-0.7,0-1.1,0c-0.1,0-0.2,0-0.3,0
			s-0.1,0-0.2,0c-0.8,0.2-1.4,0.7-1.5,1.6c-0.1,0.4-0.2,0.8-0.3,1.2c0,0.1,0,0.2,0,0.3C84.4,11.8,84.4,11.9,84.4,12.1z"/>
		<path class="st1" d="M76.4,12c0.1-0.1,0.1-0.1,0.2-0.1c0.5-0.4,1-0.8,1.7-1c0.1,0,0.2-0.1,0.1-0.3c-0.1-0.3-0.3-0.5-0.5-0.8
			c-0.1-0.2-0.2-0.3-0.4-0.4c-0.2-0.1-0.4-0.2-0.7-0.3c0,0-0.2,0.1-0.2,0.2c0,0.1,0,0.2,0,0.3c0,0.2,0,0.4-0.1,0.6
			C76.3,10.7,76.2,11.3,76.4,12z"/>
		<path class="st1" d="M109.2,13.3c0.1,0,0.1-0.1,0.2-0.1c0.1-0.1,0.2-0.3,0.3-0.4c0.2-0.1,0.4-0.2,0.6-0.4c0.1,0,0.1-0.1,0.1-0.2
			c0.1-0.1,0.2-0.3,0.3-0.4c0.1-0.1,0.2-0.1,0.3-0.1c0.2,0,0.3-0.1,0.4-0.2c0.2-0.1,0.3-0.3,0.5-0.4c0.3-0.2,0.7-0.3,1.1-0.4
			c0.3,0,0.5-0.1,0.8-0.1c-0.5-0.3-1-0.5-1.5-0.8c-0.1-0.1-0.5,0.1-0.5,0.2c0,0,0,0-0.1,0.1c-0.3,0.2-0.6,0.5-0.9,0.7
			c-0.3,0.3-0.6,0.6-0.8,1c-0.1,0.2-0.1,0.5-0.3,0.6s-0.3,0.3-0.4,0.5C109.2,13.1,109.2,13.2,109.2,13.3L109.2,13.3z"/>
		<path class="st1" d="M61.5,25c0.2,0,0.4,0,0.5-0.1c0.1-0.4,0.2-0.7,0.2-1.1c0-0.3-0.1-0.7-0.2-1c0-0.2-0.1-0.3-0.2-0.4
			s-0.1-0.2-0.3-0.2c-0.5,0.1-0.9,0.1-1.4,0.1c0,0.1,0.1,0.2,0.2,0.4c0.2,0.4,0.4,0.8,0.6,1.2c0,0,0,0.1,0.1,0.1
			C61.5,24.2,61.5,24.6,61.5,25z"/>
		<path class="st1" d="M118,3.6c-0.3,0.7-0.5,1.4-0.4,2.2s0.3,1.5,0.8,2.1c0.3,0.4,0.7,0.6,1.1,0.9c-0.4-0.9-0.9-1.6-1-2.6
			C118.4,5.5,118.2,4.6,118,3.6z"/>
		<path class="st1" d="M82.9,4.7c0.3,0.4,0.4,0.8,0.5,1.3c0,0.3,0.1,0.5,0.1,0.8C83.5,7,83.7,7,83.8,7c0.2,0,0.3-0.1,0.4-0.3
			c0.1-0.2,0.1-0.5,0.2-0.7c0.2-0.6,0.2-1.3,0.3-1.9V4C84.1,4.1,83.5,4.4,82.9,4.7z"/>
		<path class="st1" d="M111.4,27.5c0-0.3,0.1-0.6,0.2-1c0-0.1-0.1-0.2-0.1-0.2c-0.6-0.3-1.1-0.6-1.7-0.6c-0.3,0-0.6-0.1-0.9-0.1
			c-0.1,0-0.2,0-0.3,0c0,0-0.1,0-0.1,0.1s0,0.2,0.1,0.2c0.6,0.3,0.9,0.9,1.5,1.2c0.2,0.1,0.4,0.2,0.7,0.2
			C111,27.4,111.2,27.5,111.4,27.5z"/>
		<path class="st1" d="M130.4,7.5c-0.4-0.1-0.8,0-1.1,0.3c-0.2,0.2-0.4,0.4-0.7,0.3c0,0-0.1,0-0.2,0.1c-0.3,0.3-0.5,0.6-0.8,0.9
			c0,0,0,0.1,0,0.2v0.1c0.2,0.7,0.4,1.3,0.8,1.9c0.1,0.1,0.2,0.2,0.2,0.2c0.1,0.1,0.3,0,0.3-0.2s-0.1-0.3-0.1-0.5
			c-0.1-0.2-0.2-0.5-0.4-0.7c-0.2-0.3-0.1-0.6,0-0.9c0.2-0.5,0.6-0.8,1-1.2c0.1-0.1,0.2-0.1,0.3-0.1l0,0
			C129.9,7.7,130.1,7.7,130.4,7.5C130.4,7.6,130.4,7.5,130.4,7.5z"/>
		<path class="st1" d="M131.7,2.1c0.2,0.1,0.4,0.3,0.6,0.4c0.1,0,0.1,0.1,0.1,0.2c-0.1,0-0.2,0.1-0.2,0c-0.2-0.1-0.5-0.3-0.7-0.4
			c-0.1-0.1-0.2-0.2-0.4-0.2l0,0v0.1c0.4,0.4,0.8,0.8,1.3,0.9c0.5,0.1,1.1,0.3,1.6,0.4c0.6,0.1,1.2,0.4,1.8,0.3c0.1,0,0.2,0,0.4,0.1
			c-0.3-0.2-0.6-0.5-1-0.6c-0.4,0-0.8-0.1-1.2-0.2c-0.4-0.1-0.7-0.1-1-0.2c-0.1,0-0.1-0.1-0.2-0.2c0.1,0,0.2-0.1,0.2-0.1
			c0.2,0,0.5,0.1,0.7,0.2c0.2,0.1,0.5,0.1,0.7,0c-0.2-0.1-0.3-0.2-0.4-0.3c-0.1-0.1-0.2-0.1-0.3-0.1c-0.4-0.2-0.8-0.4-1.2-0.3
			C132.3,2.2,132,2.1,131.7,2.1z"/>
		<path class="st1" d="M95.1,25.1c-0.1-0.1-0.2-0.3-0.3-0.5c-0.1-0.1-0.2-0.1-0.2-0.1c-0.2,0-0.4,0.1-0.7,0.1s-0.6,0.2-0.8,0.4
			c-0.2,0.1-0.4,0.3-0.6,0.4c-0.1,0.1-0.2,0.2-0.4,0.3c-0.3,0.1-0.6,0.1-0.9,0c-0.1,0-0.2,0-0.3,0c0,0,0,0,0,0.1
			c0.1,0.1,0.2,0.1,0.2,0.2c0.4,0.1,0.8,0.3,1.3,0.3c0.1,0,0.1,0,0.2,0c0.3-0.2,0.7-0.4,1-0.5C94.1,25.4,94.6,25.3,95.1,25.1z"/>
		<path class="st1" d="M80.5,8.6c0.1-0.1,0.2-0.2,0.3-0.3C81,8.1,81.1,8,81.3,7.8c0.1-0.1,0.1-0.1,0.2-0.2c0.2-0.6,0.3-1.2,0.4-1.8
			c0-0.2,0-0.4,0-0.7c-0.4,0.2-0.8,0.4-1.1,0.6c0,0-0.1,0.1-0.1,0.2c0,0.4,0,0.7-0.1,1.1s-0.2,0.8-0.2,1.2c0,0.1,0,0.2,0,0.4
			C80.5,8.6,80.5,8.6,80.5,8.6z"/>
		<path class="st1" d="M82,19c0.4,0.2,0.8,0.4,1.3,0.6c0.4,0.2,0.9,0.4,1.1,0.8c-0.4,0.3-0.8,0.6-1.3,0.9c0,0,0,0,0-0.1
			c-0.3-0.7-0.7-1.4-1.2-2c-0.1-0.1-0.1-0.2-0.2-0.4C81.8,19,81.9,19,82,19z"/>
		<path class="st1" d="M123.6,20.1c-0.1,0.3-0.2,0.5-0.4,0.8c-0.2,0.4-0.5,0.8-1,1c-0.2,0.1-0.5,0.3-0.7,0.5
			c-0.1,0.1-0.2,0.2-0.2,0.3c0.4,0.1,0.7,0,1,0c0.5-0.1,1-0.4,1.4-0.7c0.2-0.2,0.2-0.3,0.2-0.6C123.7,20.9,123.7,20.5,123.6,20.1z"
			/>
		<path class="st1" d="M80,14.3c0.4,0.2,0.7,0.3,1,0.4c0.2,0.1,0.5,0.1,0.7,0.2c0.2,0,0.4,0,0.6,0c0.1,0,0.1-0.1,0.2-0.1
			c-0.1-0.1-0.1-0.2-0.2-0.2c-0.7-0.3-1.3-0.9-1.8-1.5c0-0.1-0.1-0.2-0.1-0.2c0-0.2,0-0.3,0-0.5v-0.1c0,0,0,0-0.1,0
			C80.3,13,80.1,13.7,80,14.3z"/>
		<path class="st1" d="M71.3,13.2c0.4,0.2,0.7,0.3,1,0.4c0.3,0.1,0.7,0.3,1,0.4c0.2,0.1,0.4,0,0.6,0.1c0,0,0,0,0-0.1
			c-0.1-0.1-0.1-0.3-0.2-0.4c-0.4-0.5-0.9-0.9-1.3-1.4c0-0.1-0.1-0.1-0.2-0.2C71.9,12.4,71.6,12.8,71.3,13.2z"/>
		<path class="st1" d="M94.5,4.9c0-0.1,0.1-0.2,0.2-0.3c0.2-0.5,0.4-1,0.8-1.4c0.1-0.1,0.1-0.2,0.2-0.3c0.3-0.6,0.6-1.3,1-1.9
			c0,0,0,0,0-0.1c-0.3,0-0.6,0-0.9,0c-0.1,0-0.2,0.2-0.3,0.3c-0.1,0.4-0.2,0.8-0.4,1.2C94.8,3.1,94.6,3.9,94.5,4.9
			C94.5,4.8,94.5,4.8,94.5,4.9C94.5,4.8,94.5,4.8,94.5,4.9z"/>
		<path class="st1" d="M92.8,27.5c0.4,0.1,0.7,0.3,1.1,0.3c0.2,0,0.4,0,0.6-0.1c0.4-0.1,0.8-0.3,1.2-0.5c0.2-0.1,0.4-0.2,0.7-0.4
			c-0.2-0.3-0.4-0.5-0.6-0.8c-0.4,0.3-0.9,0.7-1.3,1c-0.1,0.1-0.3,0.1-0.4,0.2c-0.3,0.1-0.6,0.1-1,0.2
			C92.9,27.4,92.9,27.5,92.8,27.5z"/>
		<path class="st1" d="M125.8,25.4c-0.3-0.4-0.6-0.8-0.9-1.2c0,0-0.2-0.1-0.2,0c-0.3,0.3-0.6,0.7-0.9,1c-0.1,0.1-0.1,0.2-0.1,0.3
			l0.1,0.1c0.5,0.2,1,0.2,1.5,0.1C125.5,25.6,125.6,25.5,125.8,25.4z"/>
		<path class="st1" d="M132.3,8c0.3-0.1,0.6-0.2,0.9-0.3c-0.1-0.2-0.2-0.1-0.4-0.1c-0.5,0.1-0.9,0.2-1.4,0.3c-0.1,0-0.2,0.1-0.2,0.2
			c0.3,0,0.6-0.1,0.9,0.2c-0.6-0.1-1.1,0-1.4,0.5c0.5-0.3,1-0.3,1.6-0.3c0.4,0,0.8,0.2,1.3,0c0.2,0,0.4,0,0.7,0c0.4,0.1,0.7,0,1-0.3
			c0.1-0.1,0.3-0.2,0.3-0.5c0-0.1-0.1-0.1-0.1-0.2c-0.1,0-0.2,0.1-0.2,0.1c-0.2,0.5-0.5,0.6-1,0.5c-0.1,0-0.1,0-0.2,0
			c-0.1,0-0.3,0-0.4,0c-0.4,0.1-0.7,0-1-0.2C132.4,8.1,132.4,8.1,132.3,8z"/>
		<path class="st1" d="M130.5,4.7c0.2-0.1,0.3-0.4,0.1-0.6c-0.1-0.1-0.2-0.2-0.2-0.3s-0.1-0.2,0-0.2c0.1-0.1,0.2-0.2,0.3-0.1
			c0.1,0.1,0.2,0.1,0.3,0.2c0.1,0,0.1,0.1,0.2,0.2c0.1,0.1,0.3-0.1,0.2-0.2c0-0.1-0.1-0.3-0.2-0.4c-0.3-0.4-0.7-0.7-1.2-0.7
			c-0.2,0-0.4,0.1-0.4,0.3c0,0.1,0,0.2,0.1,0.2c0.2,0.1,0.2,0.2,0.1,0.4c0,0,0,0.2,0.1,0.2C130.1,3.9,130.3,4.2,130.5,4.7
			C130.4,4.6,130.4,4.6,130.5,4.7z"/>
		<path class="st1" d="M124.3,4.7c-0.1-0.5-0.1-1,0.2-1.5c0.3-0.4,0.5-0.9,0.7-1.3c0.1-0.3,0.1-0.5,0-0.7c-0.1-0.1-0.4-0.1-0.4,0
			c-0.2,0.8-0.6,1.5-0.9,2.2c-0.1,0.3-0.2,0.6-0.1,1C123.9,4.6,124.1,4.8,124.3,4.7z"/>
		<path class="st1" d="M124.6,23.9c-0.1-0.4-0.3-0.8-0.4-1.2v-0.1c-0.2,0.2-0.4,0.4-0.6,0.7c0,0-0.1,0-0.1,0.1
			c-0.4,0.1-0.6,0.4-0.8,0.6l-0.1,0.2c0,0.1,0.2,0.1,0.2,0.1c0.3,0,0.5,0,0.8-0.1S124.3,24,124.6,23.9z"/>
		<path class="st1" d="M79,17.8c-0.1,0.3-0.3,0.5-0.4,0.8c0.7,0.2,1.5,0.3,2.2,0.4c0.1-0.3-0.1-0.4-0.3-0.5s-0.5-0.2-0.8-0.4
			C79.5,18.1,79.2,17.9,79,17.8z"/>
		<path class="st1" d="M99.1,28.5c-0.4-0.1-0.8-0.1-1.3-0.2c-0.2,0-0.3,0-0.5,0.1c-0.2,0.2-0.4,0.3-0.6,0.5
			c-0.1,0.1-0.2,0.1-0.2,0.2c0.4,0.1,0.8,0.1,1.1,0c0.5-0.1,0.9-0.3,1.2-0.6C99,28.5,99.1,28.5,99.1,28.5z"/>
		<path class="st1" d="M96.7,27.4c-0.6,0.2-1.1,0.6-1.6,1c0.8,0,1.5,0,2.1-0.4C97.1,27.8,96.9,27.6,96.7,27.4z"/>
		<path class="st1" d="M126.5,27.6c-0.1-0.5-0.2-0.9-0.3-1.4c-0.1,0.1-0.2,0.2-0.3,0.2c-0.1,0.1-0.2,0.1-0.4,0.2s-0.3,0.3-0.1,0.4
			C125.7,27.4,126,27.6,126.5,27.6z"/>
		<path class="st1" d="M111.6,28.4c0-0.2-0.1-0.4-0.1-0.5s-0.1-0.2-0.2-0.2c-0.2,0-0.4,0-0.6,0c-0.2,0-0.3,0.2-0.5,0.3
			c-0.1,0-0.1,0.1-0.2,0.1l-0.1,0.1l0.1,0.1c0.2,0,0.3,0,0.5,0C110.9,28.3,111.3,28.4,111.6,28.4z"/>
		<path class="st1" d="M132,1.7c-0.8-0.5-1.7-0.5-2.5-0.2c0,0.1,0,0.2,0.1,0.3c0.4-0.1,0.8-0.1,1.2-0.2c0.1,0,0.2,0,0.2,0
			C131.3,1.8,131.7,1.7,132,1.7z"/>
		<path class="st1" d="M73.5,15.5c0.1-0.2,0.2-0.3,0.3-0.4c-0.3-0.1-0.6-0.3-0.9-0.4c-0.1,0-0.3,0-0.4,0.1
			C72.8,15.1,73.2,15.3,73.5,15.5z"/>
		<path class="st1" d="M129.9,0.9c-0.4-0.2-0.7-0.2-1.1,0.1c0.2,0.4,0.3,0.4,0.6,0.1C129.6,1,129.8,0.9,129.9,0.9z"/>
		<path class="st1" d="M136.2,5.5c0.2-0.1,0.2-0.6,0.1-0.7h-0.1c-0.1,0.1-0.3,0.1-0.4,0.2c-0.1,0.1,0,0.4,0.2,0.4
			C136.1,5.4,136.1,5.4,136.2,5.5z"/>
		<path class="st1" d="M134.7,6.7c-0.2,0.2-0.5,0.3-0.7,0.5v0.1h0.1c0.2-0.1,0.4-0.3,0.6-0.4C134.8,6.9,134.7,6.8,134.7,6.7
			C134.8,6.7,134.7,6.7,134.7,6.7z"/>
		<path class="st1" d="M136.7,5.6c-0.3,0-0.6,0-0.9,0.2C136.2,5.9,136.4,5.8,136.7,5.6z"/>
		<path class="st1" d="M67.2,19.7c-0.2-0.2-0.4-0.4-0.5-0.6C66.6,19.2,66.6,19.2,67.2,19.7z"/>
		<path class="st1" d="M133.8,13.6c0.1,0,0.3,0,0.3-0.2c0-0.1,0.1-0.3,0.1-0.4c0,0,0-0.1,0-0.2h-0.1c-0.1,0.1-0.2,0.2-0.4,0.2
			s-0.2,0.1-0.2,0.3C133.5,13.5,133.6,13.6,133.8,13.6z"/>
		<path class="st1" d="M133.5,12.5c0-0.1-0.1-0.2-0.2-0.2c0,0-0.1,0-0.1,0.1c-0.1,0.1-0.3,0.2-0.3,0.2c0,0.1,0.1,0.3,0.2,0.4
			c0.1,0.1,0.2,0.1,0.3-0.1C133.4,12.8,133.5,12.6,133.5,12.5z"/>
		<path class="st1" d="M135.6,9.5c0.1,0.1,0.1,0.3,0.2,0.4c0,0,0,0,0.1,0C135.8,9.7,135.8,9.6,135.6,9.5
			C135.7,9.5,135.7,9.5,135.6,9.5z"/>
		<path class="st1" d="M134.4,5.9c0.3-0.1,0-0.4,0.3-0.5l0,0c-0.1,0-0.2,0-0.4-0.1C134.3,5.5,134.4,5.6,134.4,5.9z"/>
	</g>
</g>
</svg>
